<?xml version="1.0" encoding="utf-8"?>
<!-- Generator: Adobe Illustrator 27.0.1, SVG Export Plug-In . SVG Version: 6.00 Build 0)  -->
<svg version="1.1" id="Layer_1" xmlns="http://www.w3.org/2000/svg" xmlns:xlink="http://www.w3.org/1999/xlink" x="0px" y="0px"
	 viewBox="0 0 175 85" style="enable-background:new 0 0 175 85;" xml:space="preserve">
<style type="text/css">
	.st0{fill:#FFFFFF;stroke:#000000;stroke-miterlimit:10;}
	.st1{fill:#FFFFFF;}
</style>
<path class="st0" d="M162.8,18.5"/>
<g>
	<g>
		<path class="st1" d="M27.9,32.8h8.7c0.7,0,1.3-0.2,1.8-0.7s0.7-1,0.7-1.6c0-0.6-0.2-1.1-0.7-1.6c-0.5-0.5-1-0.7-1.8-0.7h-8.7v-5h9
			c2.4,0,4.3,0.7,5.7,2.1s2.1,3.1,2.1,5.1s-0.7,3.7-2.1,5.1s-3.3,2.2-5.7,2.2h-3.4v8.1h-5.6C27.9,45.9,27.9,32.8,27.9,32.8z"/>
		<path class="st1" d="M56.1,31.8l-4.7,14h-5.8l8.2-22.6h4.3l8.2,22.6h-5.8L56.1,31.8z"/>
		<path class="st1" d="M85.5,23.2l-6.8,13.4v9.2h-5.6v-9.2l-6.8-13.4h6.1l3.6,8.1l3.5-8.1C79.5,23.2,85.5,23.2,85.5,23.2z"/>
		<path class="st1" d="M102.9,45.8H87.8V23.2h5.6v17.7h9.5V45.8z"/>
		<path class="st1" d="M122,32.5c0,0.3,0,1,0,2.1s0,1.7,0,2.1c0,0.3,0,1-0.1,1.8s-0.2,1.5-0.3,1.9c-0.2,0.5-0.4,1-0.7,1.6
			c-0.3,0.6-0.7,1.1-1.2,1.6c-1.7,1.7-3.8,2.5-6.3,2.5c-2.5,0-4.6-0.8-6.3-2.5c-0.5-0.5-0.8-1-1.2-1.6c-0.3-0.6-0.5-1.1-0.7-1.6
			c-0.2-0.4-0.3-1.1-0.3-1.9s-0.1-1.5-0.1-1.8s0-1,0-2.1s0-1.7,0-2.1s0-1,0.1-1.8c0.1-0.9,0.2-1.5,0.3-1.9c0.2-0.5,0.4-1,0.7-1.6
			c0.3-0.6,0.7-1.1,1.2-1.6c1.7-1.7,3.8-2.5,6.3-2.5c2.5,0,4.6,0.9,6.3,2.5c0.5,0.5,0.8,1,1.2,1.6c0.3,0.6,0.5,1.1,0.7,1.6
			c0.2,0.5,0.3,1.1,0.3,1.9S122,32.1,122,32.5z M116.2,38.5c0.1-0.7,0.2-2,0.2-3.9s-0.1-3.2-0.2-3.9c-0.1-0.7-0.3-1.3-0.6-1.6
			c-0.5-0.7-1.2-1-2.2-1c-1,0-1.7,0.3-2.2,1c-0.3,0.4-0.5,0.9-0.6,1.6s-0.2,2-0.2,3.9s0.1,3.2,0.2,3.9c0.1,0.7,0.3,1.2,0.6,1.6
			c0.5,0.7,1.2,1,2.2,1c1,0,1.7-0.3,2.2-1C115.9,39.7,116.1,39.2,116.2,38.5z"/>
		<path class="st1" d="M134.1,31.8l-4.7,14h-5.8l8.2-22.6h4.3l8.2,22.6h-5.8L134.1,31.8z"/>
		<path class="st1" d="M146.6,40.9h8c1.2,0,2.1-0.4,2.7-1.3c0.2-0.3,0.4-0.8,0.5-1.4c0.1-0.6,0.1-1.8,0.1-3.7c0-1.8,0-3-0.1-3.7
			c-0.1-0.6-0.2-1.1-0.5-1.4c-0.6-0.9-1.5-1.3-2.7-1.3h-8v-5h8.4c2.6,0,4.6,0.7,6.1,2.2c0.3,0.3,0.6,0.7,0.9,1
			c0.2,0.4,0.5,0.7,0.6,1c0.2,0.3,0.3,0.6,0.4,1.1s0.2,0.8,0.3,1c0.1,0.2,0.1,0.6,0.1,1.2c0,0.6,0.1,1,0.1,1.1s0,0.6,0,1.3
			s0,1.2,0,1.3c0,0.2,0,0.6,0,1.1s0,1,0,1.2s0,0.5,0,1c0,0.5,0,0.8-0.1,1.1s-0.1,0.5-0.2,1s-0.2,0.8-0.3,1c-0.1,0.3-0.3,0.6-0.4,0.9
			s-0.4,0.7-0.6,0.9c-0.2,0.3-0.5,0.6-0.8,0.9c-1.5,1.5-3.5,2.2-6.1,2.2h-8.4L146.6,40.9L146.6,40.9z"/>
	</g>
	<g>
		<path class="st1" d="M34,61.5l-0.8-2.2H29l-0.8,2.2h-0.7l3.3-9h0.6l3.3,9H34z M31.1,53.4l-1.9,5.3H33L31.1,53.4z"/>
		<path class="st1" d="M36.7,60.9h2.9c0.9,0,1.5-0.2,2-0.7c0.2-0.2,0.4-0.6,0.5-1c0.1-0.5,0.2-0.8,0.2-1.1c0-0.3,0-0.7,0-1.2
			c0-0.5,0-0.9,0-1.1c0-0.2-0.1-0.6-0.2-1c-0.1-0.4-0.3-0.7-0.5-1c-0.4-0.5-1.1-0.7-2-0.7h-2.9v-0.6h3c1,0,1.7,0.3,2.3,0.8
			c0.2,0.2,0.4,0.5,0.5,0.7s0.2,0.6,0.3,1s0.1,0.7,0.1,0.9c0,0.2,0,0.5,0,1c0,0.5,0,0.8,0,1s0,0.5-0.1,1c0,0.4-0.1,0.8-0.3,1.1
			c-0.1,0.3-0.3,0.5-0.5,0.8c-0.5,0.5-1.3,0.8-2.3,0.8h-3V60.9z"/>
		<path class="st1" d="M48.1,61.5h-0.6l-3-9h0.7l2.5,7.8l2.5-7.8H51L48.1,61.5z"/>
		<path class="st1" d="M58.6,54.6c0.1,0.5,0.1,1.3,0.1,2.4s0,2-0.1,2.4s-0.3,0.9-0.7,1.3c-0.6,0.6-1.4,0.9-2.3,0.9s-1.6-0.3-2.3-0.9
			c-0.4-0.4-0.6-0.8-0.7-1.3c-0.1-0.5-0.1-1.3-0.1-2.4s0-2,0.1-2.4s0.3-0.9,0.7-1.3c0.6-0.6,1.4-0.9,2.3-0.9s1.6,0.3,2.3,0.9
			C58.2,53.7,58.5,54.1,58.6,54.6z M57.9,59.2C58,58.8,58,58,58,57s0-1.8-0.1-2.2c-0.1-0.4-0.3-0.8-0.6-1.1c-0.5-0.5-1-0.7-1.7-0.7
			s-1.2,0.2-1.7,0.7c-0.3,0.3-0.5,0.7-0.6,1.1c-0.1,0.4-0.1,1.2-0.1,2.2s0,1.8,0.1,2.2c0.1,0.4,0.3,0.8,0.6,1.1
			c0.5,0.5,1,0.7,1.7,0.7s1.2-0.2,1.7-0.7C57.6,60,57.8,59.6,57.9,59.2z"/>
		<path class="st1" d="M67.4,58.9c-0.2,0.8-0.5,1.5-1.1,1.9c-0.6,0.5-1.2,0.7-2,0.7c-0.9,0-1.6-0.3-2.3-0.9
			c-0.4-0.4-0.6-0.8-0.7-1.3c-0.1-0.5-0.1-1.3-0.1-2.4s0-2,0.1-2.4s0.3-0.9,0.7-1.3c0.6-0.6,1.4-0.9,2.3-0.9c0.8,0,1.5,0.2,2,0.7
			c0.6,0.5,0.9,1.1,1.1,1.9h-0.7c-0.1-0.6-0.4-1.1-0.8-1.5c-0.4-0.4-0.9-0.5-1.6-0.5c-0.7,0-1.2,0.2-1.7,0.7
			c-0.3,0.3-0.5,0.7-0.6,1.1c-0.1,0.4-0.1,1.2-0.1,2.2s0,1.8,0.1,2.2c0.1,0.4,0.3,0.8,0.6,1.1c0.5,0.5,1,0.7,1.7,0.7
			c0.6,0,1.1-0.2,1.6-0.5s0.7-0.9,0.8-1.5L67.4,58.9L67.4,58.9z"/>
		<path class="st1" d="M69.7,61.5h-0.7l3.3-9h0.6l3.3,9h-0.7l-2.9-8.1L69.7,61.5z"/>
		<path class="st1" d="M84,58.9c-0.2,0.8-0.5,1.5-1.1,1.9c-0.6,0.5-1.2,0.7-2,0.7c-0.9,0-1.6-0.3-2.3-0.9c-0.4-0.4-0.6-0.8-0.7-1.3
			c-0.1-0.5-0.1-1.3-0.1-2.4s0-2,0.1-2.4s0.3-0.9,0.7-1.3c0.6-0.6,1.4-0.9,2.3-0.9c0.8,0,1.5,0.2,2,0.7c0.6,0.5,0.9,1.1,1.1,1.9
			h-0.7c-0.1-0.6-0.4-1.1-0.8-1.5c-0.4-0.4-0.9-0.5-1.6-0.5c-0.7,0-1.2,0.2-1.7,0.7c-0.3,0.3-0.5,0.7-0.6,1.1
			c-0.1,0.4-0.1,1.2-0.1,2.2s0,1.8,0.1,2.2c0.1,0.4,0.3,0.8,0.6,1.1c0.5,0.5,1,0.7,1.7,0.7c0.6,0,1.1-0.2,1.6-0.5s0.7-0.9,0.8-1.5
			L84,58.9L84,58.9z"/>
		<path class="st1" d="M88.9,57.8v3.8h-0.7v-3.8l-2.7-5.3h0.7l2.3,4.6l2.2-4.6h0.7L88.9,57.8z"/>
		<path class="st1" d="M103.2,55c0,0.8-0.2,1.4-0.8,1.9s-1.2,0.7-2,0.7h-2.6v3.8h-0.7v-9h3.3c0.8,0,1.5,0.2,2,0.7
			S103.2,54.2,103.2,55z M102,56.5c0.4-0.3,0.6-0.8,0.6-1.5s-0.2-1.2-0.6-1.5s-0.9-0.5-1.6-0.5h-2.6v4h2.6
			C101.1,57,101.6,56.9,102,56.5z"/>
		<path class="st1" d="M105.6,61.5v-9h0.7v8.4h4.8v0.6H105.6z"/>
		<path class="st1" d="M112.8,61.5h-0.7l3.3-9h0.6l3.3,9h-0.7l-2.9-8.1L112.8,61.5z"/>
		<path class="st1" d="M123.7,53.1v8.4H123v-8.4h-2.7v-0.6h6.1v0.6H123.7z"/>
		<path class="st1" d="M128.6,53.1v-0.6h5.5v0.6H128.6z M133.4,56.8v0.6h-4.1v4.1h-0.7v-4.7H133.4z"/>
		<path class="st1" d="M141.9,54.6C142,55,142,55.8,142,57s0,2-0.1,2.4c-0.1,0.5-0.3,0.9-0.7,1.3c-0.6,0.6-1.4,0.9-2.3,0.9
			s-1.6-0.3-2.3-0.9c-0.4-0.4-0.6-0.8-0.7-1.3c-0.1-0.5-0.1-1.3-0.1-2.4s0-2,0.1-2.4c0.1-0.5,0.3-0.9,0.7-1.3
			c0.6-0.6,1.4-0.9,2.3-0.9s1.6,0.3,2.3,0.9C141.6,53.7,141.8,54.1,141.9,54.6z M141.2,59.2c0.1-0.4,0.1-1.2,0.1-2.2s0-1.8-0.1-2.2
			c-0.1-0.4-0.3-0.8-0.6-1.1c-0.5-0.5-1-0.7-1.7-0.7c-0.7,0-1.2,0.2-1.7,0.7c-0.3,0.3-0.5,0.7-0.6,1.1c-0.1,0.4-0.1,1.2-0.1,2.2
			s0,1.8,0.1,2.2c0.1,0.4,0.3,0.8,0.6,1.1c0.5,0.5,1,0.7,1.7,0.7c0.7,0,1.2-0.2,1.7-0.7C140.9,60,141.1,59.6,141.2,59.2z"/>
		<path class="st1" d="M144.9,56.7h3.4c0.6,0,1.1-0.2,1.5-0.5c0.4-0.3,0.5-0.8,0.5-1.4s-0.2-1.1-0.5-1.4s-0.9-0.5-1.5-0.5h-3.4
			l0-0.6h3.4c0.8,0,1.4,0.2,1.9,0.6s0.7,1,0.7,1.8c0,0.7-0.2,1.2-0.6,1.6s-0.9,0.7-1.5,0.8l2.2,4.2h-0.8l-2.2-4.2h-2.5v4.2h-0.7
			L144.9,56.7z"/>
		<path class="st1" d="M160.6,61.5V54l-2.8,6.2h-0.7l-2.8-6.2v7.5h-0.7v-9h0.7l3.1,7l3.1-7h0.7v9H160.6z"/>
	</g>
</g>
</svg>
